<svg xmlns="http://www.w3.org/2000/svg" width="185" height="60" fill="none"><path fill="#0071DC" d="M61.003 24.77H58V8.235h3.003zM83.793 24.77h-3.027v-9.847l-5.324 9.35a1.3 1.3 0 0 1-.555.543 1.6 1.6 0 0 1-.75.184 1.55 1.55 0 0 1-.74-.184 1.34 1.34 0 0 1-.531-.542l-5.348-9.35v9.845h-3.003V9.516q0-.519.3-.922.311-.404.809-.542a1.5 1.5 0 0 1 .485-.035q.242.011.462.104.23.08.415.242.186.15.312.369l6.838 11.864 6.838-11.864q.266-.438.728-.623.474-.184.982-.057.485.138.797.542.312.403.312.922zM103.799 15.154q0 1.026-.255 1.833a5.1 5.1 0 0 1-.693 1.43 4.8 4.8 0 0 1-.993 1.049q-.566.438-1.19.715a5.8 5.8 0 0 1-1.247.403 6 6 0 0 1-1.178.127H91.45v-2.998h6.792q.577-.045 1.04-.23.473-.196.808-.519a2.3 2.3 0 0 0 .52-.772q.184-.462.184-1.038v-1.36a4 4 0 0 0-.242-1.038 2.4 2.4 0 0 0-.508-.807 2.1 2.1 0 0 0-.763-.52q-.45-.195-1.04-.195h-6.768q-.6 0-.913.311-.312.311-.311.9v12.324h-3.004V12.444q0-1.153.416-1.96a4.1 4.1 0 0 1 1.051-1.302q.636-.496 1.375-.715.74-.23 1.363-.23h6.792q1.016 0 1.825.264.808.255 1.42.692.624.426 1.052.992.438.564.716 1.187.288.612.415 1.245.128.622.128 1.176zM119.993 18.013h-9.483v-3.02h9.483zm1.351 6.756H110.51a4.8 4.8 0 0 1-1.363-.219 4.1 4.1 0 0 1-1.375-.715 4.2 4.2 0 0 1-1.051-1.302q-.416-.807-.416-1.972V9.747q0-.312.116-.588a1.6 1.6 0 0 1 .311-.485q.208-.207.486-.323.277-.115.6-.115h13.526v2.998h-12.036v9.327q0 .588.312.9.312.31.913.31h10.811zM140.807 13.793q0 1.026-.254 1.834a5.2 5.2 0 0 1-.693 1.43 4.8 4.8 0 0 1-.994 1.048 6 6 0 0 1-1.189.727 5.8 5.8 0 0 1-1.248.403 6 6 0 0 1-1.178.127l6.272 5.407h-4.643l-6.261-5.407h-2.16v-2.998h6.792q.566-.045 1.028-.23.474-.196.809-.519.346-.323.531-.773.185-.46.185-1.049v-1.89q0-.254-.069-.381a.4.4 0 0 0-.162-.196.4.4 0 0 0-.208-.08 2 2 0 0 0-.196-.012h-9.911v13.535h-3.003V9.747q0-.312.115-.588.115-.277.312-.485a1.5 1.5 0 0 1 1.086-.438h11.401q1.004 0 1.697.37.694.356 1.121.91.439.542.624 1.176.196.634.196 1.188zM146.848 24.77h-3.003V8.235h3.003zM166.138 13.77q0 1.026-.266 1.834a5.4 5.4 0 0 1-.681 1.43q-.428.61-1.005 1.048-.566.438-1.179.727a5.8 5.8 0 0 1-1.247.403 6 6 0 0 1-1.178.127h-1.213v5.43h-3.026v-5.43h-1.202a6.1 6.1 0 0 1-2.437-.53 6.3 6.3 0 0 1-1.178-.727 5 5 0 0 1-1.005-1.049 5.6 5.6 0 0 1-.693-1.43 6.2 6.2 0 0 1-.254-1.833V8.236h3.003v5.534q0 .588.185 1.061.184.462.52.796.335.333.808.518.486.174 1.075.173h5.417q.427-.07.878-.173.45-.114.82-.38t.612-.738q.243-.473.243-1.257V8.236h3.003zM185 24.77h-3.003V20.71h-10.558v4.058h-3.003v-8.266q0-1.81.624-3.332a7.8 7.8 0 0 1 1.733-2.617 7.9 7.9 0 0 1 2.622-1.707q1.513-.61 3.303-.61h6.769a1.52 1.52 0 0 1 1.074.437q.208.208.323.485.116.276.116.587zm-13.561-7.057h10.558v-6.48h-5.279q-.138 0-.589.047a5.7 5.7 0 0 0-1.028.196 6.5 6.5 0 0 0-1.224.496 4.3 4.3 0 0 0-1.19.922q-.543.588-.901 1.476-.347.876-.347 2.133z"/><path fill="#FFC220" d="M73.49 45.902a5.2 5.2 0 0 1-.23 1.603q-.22.703-.587 1.246a4 4 0 0 1-.863.922 5.3 5.3 0 0 1-1.025.623q-.528.243-1.081.358-.54.115-1.024.115H57.138V47.77H68.68q.863 0 1.334-.507.484-.508.484-1.361 0-.415-.127-.762a1.7 1.7 0 0 0-.368-.6q-.23-.254-.575-.392a1.9 1.9 0 0 0-.748-.138h-6.882a5.4 5.4 0 0 1-1.565-.254 4.8 4.8 0 0 1-1.564-.842q-.714-.577-1.197-1.511Q57 40.469 57 39.119t.472-2.272q.482-.935 1.197-1.511a4.6 4.6 0 0 1 1.565-.843 5.2 5.2 0 0 1 1.564-.265h10.184v3H61.798q-.85 0-1.334.518-.472.52-.472 1.373 0 .865.472 1.373.483.495 1.334.496h6.905q.483.01 1.024.138.54.115 1.07.37.54.253 1.024.645.483.381.852.923.38.542.598 1.246.219.704.219 1.592M78.99 40.988h10.506v-6.76h2.992V50.77h-2.992v-6.76H78.99v6.76h-2.992V34.23h2.992zM99.012 50.77H96.02V34.227h2.992zM119 49.489q0 .323-.127.6a1.431 1.431 0 0 1-.794.796 1.5 1.5 0 0 1-.586.115q-.277 0-.564-.104a1.3 1.3 0 0 1-.495-.334l-10.932-11.443v11.65h-2.992V35.51q0-.462.254-.83.264-.382.667-.566a1.5 1.5 0 0 1 .874-.08q.45.08.771.414l10.932 11.432v-11.65H119z"/><path fill="#0071DC" d="M1.218 39.5C-3.527 24.284 6.062 8.47 21.813 6.236c6.854-.953 12.983 1.117 19.046 3.78.758.328 1.384.985 2.109 1.51-.264.23-.33.362-.429.362-.56.099-1.153.197-1.746.263.362.559.692 1.118 1.087 1.643.165.198.462.296.692.46 1.318.954 1.384 1.15 1.68 3.55-.428-.033-.823-.099-1.548-.165 1.417 2.958 4.514 4.273 4.284 7.559-.033.657-.165.854-.396.953-.46-.953-1.68-2.958-1.68-2.86.593 2.268 0 4.174 0 6.343-.132-.558-.165-1.117-.395-1.577-.429-.756-.857-1.84-1.483-2.038-2.076-.558-3.065-1.938-3.79-3.746-.164-.427-.56-.822-.955-1.084-4.614-2.991-9.326-5.324-14.993-2.827-1.055.46-2.142.756-3.296.986.594-.394 1.187-.821 2.175-1.479-.79 0-1.153-.098-1.45 0-2.9 1.282-5.898 2.366-8.6 4.01-2.966 1.774-3.394 5.16-3.69 8.248-.989 10.056 6.755 17.09 15.355 18.207 4.877.624 5.938.553 10.65-1.682.099.132.846-.266.945-.135-1.417.855-2.995 2.244-4.543 2.802-4.506 2.33-10.718 1.897-13.15 1.115-2.43-.782-4.726-2.1-7.428-5.132 1.861 3.376 4.563 6.383 11.351 7.698-2.24-.427-3.855-.099-7.776-1.709C8.764 48.432 4.373 44.39 2 39c-.165-.329-.485-1.814-.782-2.11-.132.132.132 2.511 0 2.61"/></svg>