<svg xmlns="http://www.w3.org/2000/svg" width="640" height="480"><defs><clipPath id="a"><path fill-opacity=".7" d="M0 0h640v480H0z"/></clipPath></defs><g clip-path="url(#a)"><path fill="#fff" fill-rule="evenodd" d="M.4.4h402.7v240H.4z"/><path fill="#c00" d="M.4.4v18l96.1 59.3 36.1 1.3L.5.4z"/><path fill="#006" d="m41.6.4 116.5 73V.5H41.6z"/><path fill="#c00" d="M173.6.4v93.3H.4V147h173.2v93.2H227V147h173.2V93.7H226.9V.4z"/><path fill="#006" d="M242.4.4v68.8L356.4 1l-114-.5z"/><path fill="#c00" d="m246 76.8 32-.3L402.7.9l-33 .7L246 76.7z"/><path fill="#006" d="m401.3 21-95 56.7 93.8.4v84.4h-80l79.2 51.5 1.2 26.2-42.3-.6-115.8-68.2v68.8h-84.3v-68.8L49.5 240l-49 .2V480h799.2V.4L402.2 0M.4 27 0 77l84.2 1L.4 27.1zm0 135.5v51l80-50.5z"/><path fill="#c00" d="m308.2 164.6-33.3-.3 125.6 75-.8-17.1zm-276.6 76 117.8-74.2-31 .3-118 73.8"/><path fill="#49497d" d="m525.4 247.8 2 2z"/><path fill="#0e0e6e" d="m527.4 247.8 2 2z"/><path fill="#262678" d="m521.3 249.8 2 2z"/><path fill="#808067" d="m523.4 249.8 2 2z"/><path fill="#58587b" d="m529.4 249.8 2 2z"/><path fill="#0e0e6e" d="m454.3 251.9 2 2z"/><path fill="#1b1b74" d="m517.3 251.9 2 2z"/><path fill="#6e6c70" d="m519.3 251.9 2 2z"/><path fill="#cc3" d="M457.9 255.5c0 52.5-6 111.6 33 152.7 8 8.4 23.4 27.7 36.5 27 13.7-.8 31.4-21.1 39.2-31 34-44.8 28.7-98.2 29.8-150.2-15.3 6.9-23 9.2-36.4 9.1-10 1-25.3-5.6-34.5-10-6 4-14.7 8.8-30.4 9.3-18 .8-23.8-2.3-37.2-6.9"/><path fill="#99994e" d="m531.5 251.9 2 2z"/><path fill="#49497d" d="m533.5 251.9 2 2z"/><path fill="#0e0e6e" d="m596.4 251.9 2 2z"/><path fill="#a4a43d" d="m456.4 253.9 2 2z"/><path fill="#6e6c70" d="m458.4 253.9 2 2z"/><path fill="#3a3a7c" d="m460.4 253.9 2 2z"/><path fill="#1b1b74" d="m513.2 253.9 2 2z"/><path fill="#6e6c70" d="m515.2 253.9 2 2z"/><path fill="#a4a43d" d="m517.3 253.9 2 2z"/><path fill="#d0d045" d="m525.4 253.9 2 2z"/><path fill="#a4a43d" d="m533.5 253.9 2 2z"/><path fill="#8d8d5b" d="m535.5 253.9 2 2z"/><path fill="#3a3a7c" d="m537.6 253.9 2 2z"/><path fill="#262678" d="m590.3 253.9 2 2z"/><path fill="#53527c" d="m592.4 253.9 2 2z"/><path fill="#8d8d5b" d="m594.4 253.9 2 2z"/><path fill="#737370" d="m464.5 256 2 2z"/><path fill="#53527c" d="m466.5 256 2 2z"/><path fill="#1b1b74" d="m468.5 256 2 2z"/><path fill="#262678" d="m509.1 256 2 2z"/><path fill="#6e6c70" d="m511.2 256 2 2z"/><path fill="#a4a43d" d="m513.2 256 2 2z"/><path fill="#e5e59d" d="m523.4 256 2 2z"/><path fill="#fff" d="M462 261.2c-1 27.6-.2 58.6 4.1 88.1 4.8 15.4 4.1 23.9 11.2 33.1l99-.8c6-9.7 10.5-24.4 11-30.3 5.6-29.7 5.7-62.6 5.9-92-10 5.3-23 9-35.7 7.4a69 69 0 0 1-30.5-9.2c-9.5 5.6-12.8 8.2-28.4 8.9-12.2.6-22 1.6-36.6-5.2"/><path fill="#f2f1d7" d="m527.4 256 2 2z"/><path fill="#d9d868" d="m529.4 256 2 2z"/><path fill="#a4a43d" d="m537.6 256 2 2z"/><path fill="#99994e" d="m539.6 256 2 2z"/><path fill="#49497d" d="m541.6 256 2 2z"/><path fill="#0e0e6e" d="m543.6 256 2 2z"/><path fill="#3a3a7c" d="m584.3 256 2 2z"/><path fill="#667" d="m586.3 256 2 2z"/><path fill="#99994e" d="m588.3 256 2 2z"/><path fill="#a4a43d" d="m590.3 256 2 2zm-121.8 2 2 2z"/><path fill="#99994e" d="m470.6 258 2 2z"/><path fill="#6e6c70" d="m472.6 258 2 2z"/><path fill="#49497d" d="m474.6 258 2 2z"/><path fill="#1b1b74" d="m476.6 258 2 2zm26.4 0 2 2z"/><path fill="#53527c" d="m505 258 2.1 2-2-2z"/><path fill="#8d8d5b" d="m507.1 258 2 2z"/><path fill="#a4a43d" d="m509.1 258 2 2z"/><path fill="#e5e59d" d="m519.3 258 2 2z"/><path fill="#fbfaf2" d="m521.3 258 2 2z"/><path fill="#f2f1d2" d="m531.5 258 2 2z"/><path fill="#d9d868" d="m533.5 258 2 2z"/><path fill="#a4a43d" d="m543.6 258 2 2z"/><path fill="#6e6c70" d="m545.7 258 2 2z"/><path fill="#3a3a7c" d="m547.7 258 2 2z"/><path fill="#0e0e6e" d="m574.1 258 2 2z"/><path fill="#32327b" d="m576.1 258 2 2z"/><path fill="#58587b" d="m578.2 258 2 2z"/><path fill="#808067" d="m580.2 258 2 2z"/><path fill="#a4a43d" d="m583.6 258.6 1.3.7z"/><path fill="#dddc7a" d="m460.4 260 2 2z"/><path fill="#d0d045" d="m462.4 260 2 2z"/><path fill="#a4a43d" d="m478 260.6 1.4.7z"/><path fill="#808067" d="m480.7 260 2 2z"/><path fill="#667" d="m482.7 260 2 2z"/><path fill="#58587b" d="m484.8 260 2 2z"/><path fill="#49497d" d="m486.8 260 2 2z"/><path fill="#737370" d="m499 260 2 2z"/><path fill="#99994e" d="m501 260 2 2z"/><path fill="#a4a43d" d="m503 260 2 2z"/><path fill="#e5e59d" d="m515.2 260 2 2z"/><path fill="#fbfaf2" d="m517.3 260 2 2z"/><path fill="#f2f1d2" d="m535.5 260 2 2z"/><path fill="#d9d868" d="m537.6 260 2 2z"/><path fill="#a4a43d" d="m549 260.6 1.4.7-1.3-.7z"/><path fill="#808067" d="m551.8 260 2 2z"/><path fill="#667" d="m553.8 260 2 2z"/><path fill="#58587b" d="m555.8 260 2 2z"/><path fill="#3a3a7c" d="m557.9 260 2 2z"/><path fill="#58587b" d="m567.3 260.6 1.4.7z"/><path fill="#737370" d="m570 260 2 2z"/><path fill="#99994e" d="m572 260 2.1 2-2-2z"/><path fill="#a4a43d" d="m574.1 260 2 2z"/><path fill="#dddc7a" d="m590.3 260 2 2z"/><path fill="#d0d045" d="m592.4 260 2 2z"/><path fill="#f2f1d7" d="m464.5 262 2 2z"/><path fill="#e0dea1" d="m466.5 262 2 2z"/><path fill="#dddc7a" d="m468.5 262 2 2z"/><path fill="#d9d868" d="m509.1 262 2 2z"/><path fill="#e5e3af" d="m511.2 262 2 2z"/><path fill="#f6f6e4" d="m539.6 262 2 2z"/><path fill="#e1e18c" d="m541.6 262 2 2z"/><path fill="#d4d456" d="m582.2 262 2 2z"/><path fill="#e1e18c" d="m584.3 262 2 2z"/><path fill="#eeedc1" d="m586.3 262 2 2z"/><path fill="#f2f1d2" d="m472.6 264 2 2z"/><path fill="#e0dea1" d="m474.6 264 2 2z"/><path fill="#dddc7a" d="m476.6 264 2 2z"/><path fill="#d0d045" d="m478.7 264 2 2z"/><path fill="#dddc7a" d="m503 264 2 2z"/><path fill="#e5e3af" d="m505 264 2.1 2-2-2z"/><path fill="#f6f6e4" d="m507.1 264 2 2z"/><path fill="#eeedc1" d="m545.7 264 2 2z"/><path fill="#e1e18c" d="m547.7 264 2 2z"/><path fill="#d4d456" d="m549.7 264 2 2z"/><path fill="#d9d868" d="m574.1 264 2 2z"/><path fill="#e1e18c" d="m576.1 264 2 2z"/><path fill="#eeedc1" d="m578.2 264 2 2z"/><path fill="#f6f6e4" d="m580.2 264 2 2z"/><path fill="#f2f1d7" d="m482.7 266 2 2.1-2-2z"/><path fill="#f2f1d2" d="m484.8 266 2 2.1-2-2z"/><path fill="#eeedc1" d="m486.8 266 2 2.1-2-2z"/><path fill="#f2f1d2" d="m496.3 266.7 1.3.7z"/><path fill="#fbfaf2" d="m499 266 2 2.1-2-2z"/><path fill="#fef8f1" d="m509.1 266 4 4.1v-4h-4z"/><path fill="#f2f1d7" d="m553.8 266 2 2.1-2-2z"/><path fill="#f2f1d2" d="m555.8 266 2 2.1-2-2z"/><path fill="#e5e3af" d="m557.9 266 2 2.1-2-2z"/><path fill="#e5e59d" d="m561.3 266.7 1.3.7-1.4-.7z"/><path fill="#e0dea1" d="m564 266 2 2.1-2-2z"/><path fill="#f2f1d2" d="m567.3 266.7 1.4.7z"/><path fill="#fbfaf2" d="m570 266 2 2.1-2-2z"/><path fill="#fef8f1" d="m505 268.1 2.1 2-2-2z"/><path fill="#fbbe66" d="m507.1 268.1 2 2z"/><path fill="#fbc477" d="m505 270.1 2.1 2-2-2z"/><path fill="#fcb144" d="m509.1 270.1 2 2z"/><path fill="#fe9f11" d="m505 272.2 2.1 2-2-2z"/><path fill="#fea522" d="m509.1 272.2 2 2z"/><path fill="#fae3c9" d="m503 274.2 2 2zm8.2 0 2 2z"/><path fill="#fbead6" d="m521.3 274.2 2 2z"/><path fill="#f9d6aa" d="m523.4 274.2 2 2z"/><path fill="#fae3c9" d="m531.5 274.2 2 2z"/><path fill="#fef8f1" d="m533.5 274.2 2 2z"/><path fill="#f9d099" d="m503 276.2 2 2z"/><path fill="#fdab33" d="m511.2 276.2 2 2z"/><path fill="#fcf1e4" d="m515.2 276.2 2 2z"/><path fill="#fbc477" d="m517.3 276.2 2 2z"/><path fill="#fea522" d="m519.3 276.2 2 2z"/><path fill="#fcb755" d="m535.5 276.2 2 2z"/><path fill="#f9d6aa" d="m537.6 276.2 2 2z"/><path fill="#faca88" d="m503 278.3 2 2z"/><path fill="#fea522" d="m513.2 278.3 2 2zm26.4 0 2 2z"/><path fill="#f8dcbb" d="m541.6 278.3 2 2z"/><path fill="#f6f6e4" d="m460.4 280.3 2 2z"/><path fill="#fbc477" d="m503 280.3 2 2z"/><path fill="#fbbe66" d="m543.6 280.3 2 2z"/><path fill="#f8dcbb" d="m545.7 280.3 2 2z"/><path fill="#faca88" d="m503 282.3 2 2z"/><path fill="#fcb755" d="m549.7 282.3 2 2z"/><path fill="#f8dcbb" d="m551.8 282.3 2 2z"/><path fill="#fef8f1" d="m501 284.4 2 2z"/><path fill="#fe9f11" d="m503 284.4 2 2z"/><path fill="#fdab33" d="m559.9 284.4 2 2z"/><path fill="#fcb144" d="m562 284.4 2 2z"/><path fill="#fbc477" d="m564 284.4 2 2z"/><path fill="#f9d6aa" d="m566 284.4 4 4z"/><path fill="#fef8f1" d="m568 284.4 2 2z"/><path fill="#fcb144" d="m501 286.4 2 2z"/><path fill="#fdab33" d="m529.4 286.4 2 2z"/><path fill="#fbc477" d="m531.5 286.4 2 2zm8 0 2.1 2-2-2z"/><path fill="#fea522" d="m541.6 286.4 2 2z"/><path fill="#fae3c9" d="m499 288.4 2 2z"/><path fill="#fcb144" d="m525.4 288.4 2 2z"/><path fill="#fae3c9" d="m527.4 288.4 2 2z"/><path fill="#f8dcbb" d="m543.6 288.4 2 2z"/><path fill="#fdab33" d="m545.7 288.4 2 2z"/><path fill="#fe9f11" d="m557.9 288.4 2 2z"/><path fill="#fcb755" d="m559.9 288.4 2 2z"/><path fill="#f9d099" d="m562 288.4 2 2z"/><path fill="#fbead6" d="m564 288.4 2 2z"/><path fill="#fcb144" d="m499 290.4 2 2z"/><path fill="#fbbe66" d="m523.4 290.4 2 2z"/><path fill="#f9d099" d="m547.7 290.4 2 2z"/><path fill="#fbead6" d="m555.8 290.4 2 2z"/><path fill="#fcf1e4" d="m497 292.5 2 2z"/><path fill="#fbbe66" d="m521.3 292.5 2 2z"/><path fill="#f9d099" d="m549.7 292.5 2 2z"/><path fill="#fae3c9" d="m555.8 292.5 2 2z"/><path fill="#fbc477" d="m497 294.5 2 2z"/><path fill="#fcb144" d="m519.3 294.5 2 2zm32.5 0 2 2z"/><path fill="#fbbe66" d="m555.8 294.5 2 2z"/><path fill="#f6f6e4" d="m460.4 296.5 2 2z"/><path fill="#fea522" d="m497 296.5 2 2z"/><path fill="#fbead6" d="m519.3 296.5 2 2z"/><path fill="#fcf1e4" d="m551.8 296.5 2 2z"/><path fill="#fef8f1" d="m557.9 296.5 2 2z"/><path fill="#fcf1e4" d="m495 298.6 2 2z"/><path fill="#fbbe66" d="m517.3 298.6 2 2z"/><path fill="#faca88" d="m553.8 298.6 2 2z"/><path fill="#f9d099" d="m557.9 298.6 2 2z"/><path fill="#f9d6aa" d="m495 300.6 2 2z"/><path fill="#fcf1e4" d="m517.3 300.6 2 2z"/><path fill="#fae3c9" d="m527.4 300.6 2 2z"/><path fill="#fea522" d="m529.4 300.6 2 2z"/><path fill="#fcb144" d="m531.5 300.6 2 2z"/><path fill="#f9d6aa" d="m533.5 300.6 2 2z"/><path fill="#fef8f1" d="m553.8 300.6 2 2z"/><path fill="#fea522" d="m555.8 300.6 2 2z"/><path fill="#fdab33" d="m557.9 300.6 2 2z"/><path fill="#faca88" d="m495 302.6-2.1 6.1 2-6z"/><path fill="#fea522" d="m515.2 302.6 2 2z"/><path fill="#fef8f1" d="m517.3 302.6 2 2z"/><path fill="#f9d099" d="m527.4 302.6 2 2z"/><path fill="#fdab33" d="m535.5 302.6 2 2z"/><path fill="#fae3c9" d="m537.6 302.6 2 2z"/><path fill="#f8dcbb" d="m555.8 302.6 2 2z"/><path fill="#f90" d="m557.9 302.6 2 2z"/><path fill="#fbead6" d="m560.6 304 .6 1.3z"/><path fill="#fea522" d="m519.3 304.6 2 2z"/><path fill="#fbbe66" d="m521.3 304.6 2 2z"/><path fill="#faca88" d="m523.4 304.6 2 2z"/><path fill="#fcb144" d="m525.4 304.6 2 2z"/><path fill="#fae3c9" d="m527.4 304.6 2 2z"/><path fill="#fe9f11" d="m529.4 304.6 2 2z"/><path fill="#fdab33" d="m539.6 304.6 2 2z"/><path fill="#fbc477" d="m541.6 304.6 2 2z"/><path fill="#faca88" d="m543.6 304.6 2 2z"/><path fill="#f9d6aa" d="m545.7 304.6 2 2z"/><path fill="#fae3c9" d="m549 305.3 1.4.7-1.3-.7z"/><path fill="#fef8f1" d="m551.8 304.6 2 2z"/><path fill="#fbc477" d="m557.9 304.6 2 2z"/><path fill="#fef8f1" d="m470.6 306.7 2 2z"/><path fill="#fcf1e4" d="m472.6 306.7 2 2z"/><path fill="#fcb755" d="m525.4 306.7 2 2z"/><path fill="#fbead6" d="m529.4 306.7 2 2z"/><path fill="#fea522" d="m531.5 306.7 2 2z"/><path fill="#fe9f11" d="m547.7 306.7 2 2z"/><path fill="#fcb144" d="m549.7 306.7-2 4z"/><path fill="#fe9f11" d="m553.8 306.7 2 2z"/><path fill="#fbbe66" d="m555.8 306.7 2 2z"/><path fill="#fcf1e4" d="m557.9 306.7 2 2z"/><path fill="#fae3c9" d="m470.6 308.7 2 2z"/><path fill="#fe9f11" d="m472.6 308.7 4 4z"/><path fill="#fbead6" d="m474.6 308.7 2 2zm18.3 0 2 2z"/><path fill="#fae3c9" d="m495 308.7 2 2z"/><path fill="#fe9f11" d="m513.2 308.7 2 2z"/><path fill="#fbc477" d="m515.2 308.7 2 2z"/><path fill="#fea522" d="m517.3 308.7 2 2z"/><path fill="#fbc477" d="m523.4 308.7 2 2z"/><path fill="#fef8f1" d="m525.4 308.7 2 2z"/><path fill="#fbc477" d="m533.5 308.7 2 2z"/><path fill="#fff" d="m549.7 308.7 2 2z"/><path fill="#fdab33" d="m551.8 308.7 2 2z"/><path fill="#fbc477" d="m559.9 308.7 2 2z"/><path fill="#fef8f1" d="m470.6 310.7 2 2z"/><path fill="#fbead6" d="m476.6 310.7 2 2z"/><path fill="#f9d6aa" d="m486.8 310.7 2 2z"/><path fill="#fe9f11" d="m497 310.7 2 2z"/><path fill="#f9d6aa" d="m500.3 311.4 1.4.7z"/><path fill="#f8dcbb" d="m513.2 310.7 2 2z"/><path fill="#fcf1e4" d="m519.3 310.7 2 2z"/><path fill="#f9d6aa" d="m535.5 310.7 2 2z"/><path fill="#fdab33" d="m549.7 310.7 2 2z"/><path fill="#fcb755" d="m562 310.7 2 2z"/><path fill="#fef8f1" d="m564 310.7 2 2z"/><path fill="#53527c" d="m454.3 312.8 2 2z"/><path fill="#fcb755" d="m472.6 312.8 2 2z"/><path fill="#fea522" d="m476.6 312.8 2 2z"/><path fill="#fbead6" d="m484.8 312.8 2 2z"/><path fill="#fe9f11" d="m488.8 312.8 2 2z"/><path fill="#fcf1e4" d="m490.9 312.8 2 2z"/><path fill="#fbbe66" d="m497 312.8 2 2z"/><path fill="#fbc477" d="m499 312.8 2 2z"/><path fill="#fbbe66" d="m501 312.8 2 2z"/><path fill="#fea522" d="m511.2 312.8 2 2z"/><path fill="#f9d6aa" d="m537.6 312.8 2 2z"/><path fill="#fcb144" d="m564 312.8 2 2z"/><path fill="#8d8d5b" d="m596.4 312.8 2 2z"/><path fill="#e5e3af" d="m460.4 314.8 2 2z"/><path fill="#f8dcbb" d="m472.6 314.8 2 2z"/><path fill="#fdab33" d="m478.7 314.8 2 2z"/><path fill="#fe9f11" d="m484.8 314.8 2 2z"/><path fill="#faca88" d="m488.8 314.8 2 2z"/><path fill="#fcf1e4" d="m497 314.8 2 2z"/><path fill="#f9d099" d="m511.2 314.8 2 2zm28.4 0 2 2z"/><path fill="#fbbe66" d="m566 314.8 2 2z"/><path fill="#fea522" d="m474.6 316.8 2 2z"/><path fill="#fdab33" d="m480.7 316.8 2 2z"/><path fill="#fea522" d="m482.7 316.8 2 2z"/><path fill="#fe9f11" d="m486.8 316.8 2 2z"/><path fill="#fef8f1" d="m488.8 316.8 2 2z"/><path fill="#fbbe66" d="m499 316.8 2 2z"/><path fill="#fef8f1" d="m511.2 316.8 2 2z"/><path fill="#fbbe66" d="m541.6 316.8 2 2z"/><path fill="#f9d099" d="m568 316.8 2 2z"/><path fill="#f9d6aa" d="m474.6 318.9 2 2z"/><path fill="#f9d099" d="m486.8 318.9 2 2z"/><path fill="#fcf1e4" d="m499 318.9 2 2z"/><path fill="#fdab33" d="m509.1 318.9 2 2zm34.5 0 2 2z"/><path fill="#fbead6" d="m570 318.9 2 2z"/><path fill="#fea522" d="m476.6 320.9 2 2z"/><path fill="#fe9f11" d="m484.8 320.9 2 2z"/><path fill="#fcb144" d="m501 320.9 2 2z"/><path fill="#faca88" d="m509.1 320.9 2 2z"/><path fill="#f8dcbb" d="m543.6 320.9 2 2z"/><path fill="#fcb144" d="m570 320.9 2 2z"/><path fill="#d3d079" d="m460.4 323 2 2z"/><path fill="#faca88" d="m476.6 323 2 2zm24.4 0 2 2z"/><path fill="#fae3c9" d="m509.1 323 2 2zm34.5 0 2 2z"/><path fill="#f8dcbb" d="m572 323 2.1 2-2-2z"/><path fill="#f2f1d7" d="m590.3 323 2 2z"/><path fill="#58587b" d="m597.1 324.3.7 1.3z"/><path fill="#d9d868" d="m461 326.3.8 1.4-.7-1.4z"/><path fill="#f8dcbb" d="m476.6 325 2 2z"/><path fill="#f9d6aa" d="m541.6 325 2 2z"/><path fill="#fe9f11" d="m543.6 325 2 2z"/><path fill="#fcb144" d="m572 325 2.1 2-2-2z"/><path fill="#f2f1d2" d="m591 326.3.7 1.4z"/><path fill="#fcf1e4" d="m476.6 327 2 2z"/><path fill="#fef8f1" d="m539.6 327 2 2z"/><path fill="#fe9f11" d="m541.6 327 2 2z"/><path fill="#fdab33" d="m547.7 327-2 4z"/><path fill="#fcb755" d="m549.7 327 2 2z"/><path fill="#fea522" d="m574.1 327 2 2z"/><path fill="#f9d099" d="m576.1 327 2 2z"/><path fill="#53527c" d="m596.4 327 2 2z"/><path fill="#808067" d="m457 330.4.7 1.3z"/><path fill="#fea522" d="m478.7 329 2 2zm6 0 2.1 2-2-2z"/><path fill="#fe9f11" d="m507.1 329 2 2z"/><path fill="#fae3c9" d="m539.6 329 2 2z"/><path fill="#fef8f1" d="m547.7 329 2 2z"/><path fill="#fcb144" d="m551.8 329 2 2z"/><path fill="#fcb755" d="m578.2 329 2 2z"/><path fill="#fef8f1" d="m580.2 329 4 4z"/><path fill="#e5e59d" d="m591 330.4.7 1.3z"/><path fill="#32327b" d="m597.1 330.4.7 1.3z"/><path fill="#fcb755" d="m479.4 332.4.6 1.4z"/><path fill="#fef8f1" d="m486.8 331 2 2z"/><path fill="#fbbe66" d="m507.1 331 2 2z"/><path fill="#fbead6" d="m539.6 331 2 2z"/><path fill="#fe9f11" d="m543.6 331 2 2z"/><path fill="#fcf1e4" d="m545.7 331 2 2z"/><path fill="#fbead6" d="m551.8 331 2 2z"/><path fill="#fdab33" d="m580.2 331 2 2z"/><path fill="#667" d="m456.4 333 2 2.1-2-2z"/><path fill="#f6f6e4" d="m462.4 333 2 2.1-2-2z"/><path fill="#f9d6aa" d="m486.8 333 2 2.1-2-2z"/><path fill="#fdab33" d="m503 333 2 2.1-2-2z"/><path fill="#fe9f11" d="m505 333 2.1 2.1-2-2z"/><path fill="#fcf1e4" d="m507.1 333 2 2.1-2-2z"/><path fill="#fea522" d="m541.6 333 2 2.1-2-2z"/><path fill="#faca88" d="m543.6 333 2 2.1-2-2m10.2 0 2 2z"/><path fill="#fcb144" d="m582.2 333 2 2.1-2-2z"/><path fill="#dddc7a" d="m590.3 333 2 2.1-2-2z"/><path fill="#58587b" d="m456.4 335.1 2 2z"/><path fill="#f2f1d2" d="m462.4 335.1 2 2z"/><path fill="#fcb144" d="m479.4 336.5.6 1.3z"/><path fill="#fea522" d="m486.8 335.1 2 2z"/><path fill="#fef8f1" d="m507.1 335.1 2 2z"/><path fill="#fea522" d="m509.1 335.1 2 2z"/><path fill="#fcb144" d="m513.2 335.1 2 2z"/><path fill="#fbead6" d="m515.2 335.1 2 2z"/><path fill="#f8dcbb" d="m541.6 335.1 2 2z"/><path fill="#fcf1e4" d="m543.6 335.1 2 2z"/><path fill="#fef8f1" d="m553.8 335.1 2 2z"/><path fill="#fe9f11" d="m555.8 335.1 2 2z"/><path fill="#fbead6" d="m584.3 335.1 2 2z"/><path fill="#d9d868" d="m590.3 335.1 2 2z"/><path fill="#3a3a7c" d="m456.4 337.1 2 2z"/><path fill="#e5e3af" d="m462.4 337.1 2 2z"/><path fill="#faca88" d="m488.8 337.1 2 2z"/><path fill="#fbead6" d="m509.1 337.1 2 2z"/><path fill="#fe9f11" d="m515.2 337.1 2 2z"/><path fill="#fcf1e4" d="m517.3 337.1 2 2z"/><path fill="#fbead6" d="m539.6 337.1 2 2z"/><path fill="#fae3c9" d="m541.6 337.1 2 2z"/><path fill="#fbead6" d="m543.6 337.1 2 2z"/><path fill="#fbbe66" d="m555.8 337.1 2 2zm16.3 0 2 2z"/><path fill="#fcf1e4" d="m574.1 337.1 2 2z"/><path fill="#fef8f1" d="m576.1 337.1 2 2z"/><path fill="#f8dcbb" d="m578.2 337.1 2 2z"/><path fill="#fcb755" d="m580.2 337.1 2 2z"/><path fill="#fae3c9" d="m584.3 337.1 2 2z"/><path fill="#808067" d="m594.4 337.1 2 2z"/><path fill="#32327b" d="m456.4 339.2 2 2z"/><path fill="#a4a43d" d="m459 340.5.7 1.4-.6-1.4z"/><path fill="#e5e59d" d="m462.4 339.2 2 2z"/><path fill="#fbc477" d="m478.7 339.2 2 2z"/><path fill="#f9d6aa" d="m490.9 339.2 2 2z"/><path fill="#fbbe66" d="m511.2 339.2 2 2z"/><path fill="#f9d099" d="m517.3 339.2 2 2z"/><path fill="#fae3c9" d="m535.5 339.2 2 2z"/><path fill="#fcb144" d="m537.6 339.2 2 2z"/><path fill="#fae3c9" d="m545.7 339.2 2 2z"/><path fill="#f8dcbb" d="m555.8 339.2 2 2z"/><path fill="#f9d099" d="m572 339.2 2.1 2-2-2z"/><path fill="#fbc477" d="m582.2 339.2 2 2z"/><path fill="#fbead6" d="m584.3 339.2 2 2z"/><path fill="#737370" d="m594.4 339.2 2 2z"/><path fill="#d9d868" d="m462.4 341.2 2 2z"/><path fill="#f9d099" d="m478.7 341.2 2 2z"/><path fill="#f9d6aa" d="m492.9 341.2 2 2zm18.3 0 2 2z"/><path fill="#fbc477" d="m517.3 341.2 2 2z"/><path fill="#fef8f1" d="m527.4 341.2 2 2z"/><path fill="#f8dcbb" d="m529.4 341.2 2 2z"/><path fill="#fbc477" d="m531.5 341.2 2 2z"/><path fill="#fea522" d="m533.5 341.2 2 2z"/><path fill="#fbead6" d="m545.7 341.2 2 2z"/><path fill="#f2f1d2" d="m588.3 341.2 2 2z"/><path fill="#58587b" d="m594.4 341.2 2 2z"/><path fill="#99994e" d="m458.4 343.2 2 2z"/><path fill="#d0d045" d="m462.4 343.2 2 2z"/><path fill="#fcb144" d="m495 343.2 2 2z"/><path fill="#fae3c9" d="m497 343.2 2 2z"/><path fill="#fef8f1" d="m511.2 343.2 2 2z"/><path fill="#fcb755" d="m519.3 343.2 2 2z"/><path fill="#fbc477" d="m521.3 343.2 2 2z"/><path fill="#fcb144" d="m523.4 343.2 2 2z"/><path fill="#fea522" d="m525.4 343.2 2 2z"/><path fill="#fe9f11" d="m541.6 343.2 2 2z"/><path fill="#f9d6aa" d="m543.6 343.2 2 2z"/><path fill="#fef8f1" d="m572 343.2 2.1 2-2-2z"/><path fill="#e0dea1" d="m588.3 343.2 2 2z"/><path fill="#3a3a7c" d="m594.4 343.2 2 2z"/><path fill="#737370" d="m458.4 345.3 2 2z"/><path fill="#fbfaf2" d="m464.5 345.3 2 2z"/><path fill="#fea522" d="m480.7 345.3 2 2z"/><path fill="#fe9f11" d="m499 345.3 2 2z"/><path fill="#fcb144" d="m501 345.3 2 2z"/><path fill="#fbc477" d="m503 345.3 2 2z"/><path fill="#faca88" d="m505 345.3 2.1 2-2-2z"/><path fill="#fbc477" d="m507.1 345.3 2 2z"/><path fill="#fcb144" d="m509.1 345.3 2 2z"/><path fill="#fdab33" d="m511.2 345.3 2 2z"/><path fill="#fbc477" d="m539.6 345.3 2 2z"/><path fill="#fef8f1" d="m541.6 345.3 2 2z"/><path fill="#fdab33" d="m570 345.3 2 2z"/><path fill="#e1e18c" d="m588.3 345.3 2 2z"/><path fill="#a4a43d" d="m593 346.6.7 1.4z"/><path fill="#262678" d="m594.4 345.3 2 2z"/><path fill="#58587b" d="m458.4 347.3 2 2z"/><path fill="#f2f1d2" d="m464.5 347.3 2 2z"/><path fill="#faca88" d="m480.7 347.3 2 2z"/><path fill="#fe9f11" d="m535.5 347.3 2 2z"/><path fill="#fbead6" d="m537.6 347.3 2 2z"/><path fill="#fbc477" d="m555.8 347.3 2 2z"/><path fill="#faca88" d="m570 347.3 2 2z"/><path fill="#d4d456" d="m588.3 347.3 2 2z"/><path fill="#32327b" d="m458.4 349.3 2 2z"/><path fill="#e5e59d" d="m464.5 349.3 2 2z"/><path fill="#fef8f1" d="m480.7 349.3 2 2z"/><path fill="#fe9f11" d="m482.7 349.3 2 2z"/><path fill="#fbead6" d="m535.5 349.3 2 2z"/><path fill="#fea522" d="m555.8 349.3 2 2z"/><path fill="#fcf1e4" d="m570 349.3 2 2z"/><path fill="#808067" d="m592.4 349.3 2 2z"/><path fill="#0e0e6e" d="m458.4 351.3 2 2z"/><path fill="#a4a43d" d="m460.4 351.3 2 2z"/><path fill="#d9d868" d="m464.5 351.3 2 2z"/><path fill="#f8dcbb" d="m482.7 351.3 2 2z"/><path fill="#f9d6aa" d="m553.8 351.3 2 2z"/><path fill="#faca88" d="m568 351.3 2 2z"/><path fill="#f2f1d2" d="m586.3 351.3 2 2z"/><path fill="#58587b" d="m592.4 351.3 2 2z"/><path fill="#8d8d5b" d="m460.4 353.4 2 2z"/><path fill="#f9d6aa" d="m484.8 353.4 2 2z"/><path fill="#fdab33" d="m525.4 353.4 2 2z"/><path fill="#fff" d="m527.4 353.4 2 2z"/><path fill="#fcb144" d="m530.8 354 1.4.7z"/><path fill="#fef8f1" d="m551.8 353.4-2 4z"/><path fill="#fe9f11" d="m553.8 353.4 2 2z"/><path fill="#fdab33" d="m566 353.4-2 4z"/><path fill="#e5e59d" d="m586.3 353.4 2 2z"/><path fill="#3a3a7c" d="m592.4 353.4 2 2z"/><path fill="#667" d="m460.4 355.4 2 2z"/><path fill="#f2f1d2" d="m466.5 355.4 2 2z"/><path fill="#f9d6aa" d="m486.8 355.4 2 2z"/><path fill="#fe9f11" d="m525.4 355.4 2 2z"/><path fill="#faca88" d="m527.4 355.4 2 2z"/><path fill="#fea522" d="m529.4 355.4 2 2z"/><path fill="#fcf1e4" d="m531.5 355.4 2 2z"/><path fill="#fdab33" d="m551.8 355.4 2 2z"/><path fill="#fef8f1" d="m566 355.4 2 2z"/><path fill="#d9d868" d="m586.3 355.4 2 2z"/><path fill="#a4a43d" d="m590.3 355.4 2 2z"/><path fill="#0e0e6e" d="m592.4 355.4 2 2z"/><path fill="#3a3a7c" d="m460.4 357.4 2 2z"/><path fill="#e5e59d" d="m466.5 357.4 2 2z"/><path fill="#fae3c9" d="m488.8 357.4 4 4z"/><path fill="#fe9f11" d="m490.9 357.4 2 2z"/><path fill="#f8dcbb" d="m529.4 357.4 2 2z"/><path fill="#fcf1e4" d="m547.7 357.4 2 2z"/><path fill="#fdab33" d="m549.7 357.4 2 2z"/><path fill="#fcb144" d="m562 357.4 2 2z"/><path fill="#fef8f1" d="m564 357.4 2 2z"/><path fill="#fbfaf2" d="m584.3 357.4 2 2z"/><path fill="#8d8d5b" d="m590.3 357.4 2 2z"/><path fill="#0e0e6e" d="m460.4 359.5 2 2z"/><path fill="#a4a43d" d="m462.4 359.5 2 2z"/><path fill="#d4d456" d="m466.5 359.5 2 2z"/><path fill="#f9d6aa" d="m527.4 359.5 2 2z"/><path fill="#f9d099" d="m545.7 359.5 2 2z"/><path fill="#fe9f11" d="m547.7 359.5 2 2z"/><path fill="#faca88" d="m559.9 359.5 2 2z"/><path fill="#eeedc1" d="m584.3 359.5 2 2z"/><path fill="#58587b" d="m590.3 359.5 2 2z"/><path fill="#737370" d="m462.4 361.5 2 2z"/><path fill="#f6f6e4" d="m468.5 361.5 2 2z"/><path fill="#fbbe66" d="m490.9 361.5 2 2z"/><path fill="#fcb144" d="m523.4 361.5 2 2z"/><path fill="#f8dcbb" d="m526 362.9.7 1.3z"/><path fill="#fbbe66" d="m541.6 361.5 2 2z"/><path fill="#fe9f11" d="m543.6 361.5 2 2z"/><path fill="#fbc477" d="m555.8 361.5 2 2z"/><path fill="#fcf1e4" d="m557.9 361.5 2 2z"/><path fill="#d3d079" d="m584.3 361.5 2 2z"/><path fill="#a4a43d" d="m588.3 361.5 2 2z"/><path fill="#262678" d="m590.3 361.5 2 2z"/><path fill="#49497d" d="m462.4 363.5 2 2z"/><path fill="#e0dea1" d="m468.5 363.5 2 2z"/><path fill="#fae3c9" d="m488.8 363.5 2 2z"/><path fill="#fdab33" d="m517.3 363.5 2 2z"/><path fill="#fbc477" d="m519.3 363.5 2 2z"/><path fill="#fbead6" d="m521.3 363.5 2 2z"/><path fill="#fcb144" d="m527.4 363.5 2 2z"/><path fill="#f9d6aa" d="m553.8 363.5 2 2z"/><path fill="#99994e" d="m588.3 363.5 2 2z"/><path fill="#0e0e6e" d="m462.4 365.6 2 2z"/><path fill="#a4a43d" d="m464.5 365.6 2 2z"/><path fill="#d4d456" d="m468.5 365.6 2 2z"/><path fill="#f9d099" d="m486.8 365.6 2 2z"/><path fill="#fe9f11" d="m488.8 365.6 2 2zm10.2 0 2 2z"/><path fill="#f9d6aa" d="m501 365.6 2 2z"/><path fill="#f9d099" d="m503 365.6 2 2z"/><path fill="#f9d6aa" d="m511.2 365.6 2 2z"/><path fill="#fae3c9" d="m513.2 365.6 2 2z"/><path fill="#fef8f1" d="m515.2 365.6 2 2z"/><path fill="#fbead6" d="m531.5 365.6 2 2z"/><path fill="#fae3c9" d="m533.5 365.6 2 2z"/><path fill="#faca88" d="m535.5 365.6 2 2z"/><path fill="#fbc477" d="m537.6 365.6 2 2z"/><path fill="#fdab33" d="m539.6 365.6 2 2z"/><path fill="#fe9f11" d="m549.7 365.6 2 2z"/><path fill="#f9d6aa" d="m551.8 365.6 2 2z"/><path fill="#e5e3af" d="m582.2 365.6 2 2z"/><path fill="#667" d="m588.3 365.6 2 2z"/><path fill="#737370" d="m464.5 367.6 2 2z"/><path fill="#f2f1d7" d="m470.6 367.6 2 2z"/><path fill="#fea522" d="m484.8 367.6 2 2z"/><path fill="#fe9f11" d="m495 367.6 2 2z"/><path fill="#fbbe66" d="m497 367.6 2 2z"/><path fill="#fcf1e4" d="m499 367.6 2 2z"/><path fill="#fea522" d="m547.7 367.6 2 2z"/><path fill="#fbead6" d="m549.7 367.6 2 2z"/><path fill="#dddc7a" d="m582.2 367.6 2 2z"/><path fill="#a4a43d" d="m586.3 367.6 2 2z"/><path fill="#262678" d="m588.3 367.6 2 2z"/><path fill="#49497d" d="m464.5 369.6 2 2z"/><path fill="#a4a43d" d="m467.2 371 .7 1.3z"/><path fill="#d3d079" d="m470.6 369.6 2 2z"/><path fill="#f9d099" d="m486.8 369.6 2 2z"/><path fill="#fcb144" d="m488.8 369.6 2 2z"/><path fill="#faca88" d="m490.9 369.6 2 2z"/><path fill="#f8dcbb" d="m492.9 369.6 2 2z"/><path fill="#fef8f1" d="m495 369.6 2 2z"/><path fill="#f8dcbb" d="m539.6 369.6 2 2z"/><path fill="#fcf1e4" d="m547.7 369.6 2 2z"/><path fill="#f6f6e4" d="m580.2 369.6 2 2z"/><path fill="#8d8d5b" d="m586.3 369.6 2 2z"/><path fill="#fbfaf2" d="m472.6 371.6 2 2z"/><path fill="#fbbe66" d="m539.6 371.6 2 2z"/><path fill="#faca88" d="m545.7 371.6 2 2z"/><path fill="#e1e18c" d="m580.2 371.6 2 2z"/><path fill="#49497d" d="m586.3 371.6 2 2z"/><path fill="#58587b" d="m466.5 373.7 2 2z"/><path fill="#e5e59d" d="m472.6 373.7 2 2z"/><path fill="#fe9f11" d="m539.6 373.7 2 2z"/><path fill="#fdab33" d="m543.6 373.7 2 2z"/><path fill="#fbfaf2" d="m578.2 373.7 2 2z"/><path fill="#a4a43d" d="m584.3 373.7 2 2z"/><path fill="#0e0e6e" d="m586.3 373.7 2 2z"/><path fill="#1b1b74" d="m466.5 375.7 2 2z"/><path fill="#a4a43d" d="m468.5 375.7 2 2z"/><path fill="#d0d045" d="m472.6 375.7 2 2z"/><path fill="#fbead6" d="m537.6 375.7 2 2z"/><path fill="#fe9f11" d="m541.6 375.7 2 2z"/><path fill="#fbead6" d="m543.6 375.7 2 2z"/><path fill="#e5e59d" d="m578.2 375.7 2 2z"/><path fill="#667" d="m584.3 375.7 2 2z"/><path fill="#6e6c70" d="m468.5 377.7 2 2z"/><path fill="#e5e3af" d="m474.6 377.7 2 2z"/><path fill="#faca88" d="m538.2 379.1.7 1.4z"/><path fill="#fae3c9" d="m541.6 377.7 2 2z"/><path fill="#fbfaf2" d="m576.1 377.7 2 2z"/><path fill="#a4a43d" d="m582.2 377.7 2 2z"/><path fill="#1b1b74" d="m584.3 377.7 2 2zm-115.8 2 2 2z"/><path fill="#a4a43d" d="m470.6 379.8 2 2z"/><path fill="#d0d045" d="m474.6 379.8 2 2z"/><path fill="#fbfaf2" d="m476.6 379.8 2 2z"/><path fill="#f9d6aa" d="m539.6 379.8 2 2z"/><path fill="#e5e59d" d="m576.1 379.8 2 2z"/><path fill="#6e6c70" d="m582.2 379.8 2 2zm-111.6 2 2 2z"/><path fill="#8cbf84" d="m476.6 381.8 2 2z"/><path fill="#0cf" d="M477.5 381.8c7 14.8 32 49.8 51 49.2 18.6-.7 39.5-34.9 47.6-49.2z"/><path fill="#a4a43d" d="m580.2 381.8 2 2z"/><path fill="#1b1b74" d="m582.2 381.8 2 2zm-111.6 2 2 2z"/><path fill="#a4a43d" d="m472.6 383.8 2 2z"/><path fill="#adb333" d="m476.6 383.8 2 2z"/><path fill="#1ac5b5" d="m478.7 383.8 2 2z"/><path fill="#68b070" d="m574.1 383.8 2 2z"/><path fill="#667" d="m580.2 383.8 2 2z"/><path fill="#58587b" d="m472.6 385.9 2 2z"/><path fill="#7fb15c" d="m478.7 385.9 2 2z"/><path fill="#27c2aa" d="m572 385.9 2.1 2-2-2z"/><path fill="#a4a43d" d="m578.2 385.9-2 4z"/><path fill="#0e0e6e" d="m580.2 385.9 2 2zm-107.6 2 2 2z"/><path fill="#a4a43d" d="m474.6 387.9 4 4z"/><path fill="#34be9e" d="m480.7 387.9 2 2z"/><path fill="#96b247" d="m572 387.9 2.1 2-2-2z"/><path fill="#53527c" d="m578.2 387.9 2 2z"/><path fill="#3a3a7c" d="m474.6 390 2 2z"/><path fill="#a2b23d" d="m480.7 390 2 2z"/><path fill="#0dc9c1" d="m482.7 390 2 2z"/><path fill="#5bb47c" d="m570 390 2 2z"/><path fill="#8d8d5b" d="m576.1 390 2 2z"/><path fill="#737370" d="m476.6 392 2 2z"/><path fill="#74b166" d="m482.7 392 2 2z"/><path fill="#27c2aa" d="m568 392 2 2z"/><path fill="#a4a43d" d="m574.1 392-2 4z"/><path fill="#262678" d="m576.1 392 2 2z"/><path fill="#0e0e6e" d="m476.6 394 2 2z"/><path fill="#a4a43d" d="m478.7 394 4 4z"/><path fill="#42bb92" d="m484.8 394 2 2z"/><path fill="#0dc9c1" d="m566 394 2 2z"/><path fill="#96b247" d="m568 394 2 2z"/><path fill="#58587b" d="m574.1 394 2 2z"/><path fill="#3a3a7c" d="m478.7 396 2 2z"/><path fill="#adb333" d="m484.8 396 2 2z"/><path fill="#27c2aa" d="m486.8 396 2 2z"/><path fill="#74b166" d="m566 396 2 2z"/><path fill="#8d8d5b" d="m572 396 2.1 2-2-2z"/><path fill="#6e6c70" d="m480.7 398 2 2z"/><path fill="#96b247" d="m486.8 398 2 2z"/><path fill="#0dc9c1" d="m488.8 398 2 2z"/><path fill="#42bb92" d="m564 398 2 2z"/><path fill="#a4a43d" d="m570 398-4 6.1 4-6z"/><path fill="#1b1b74" d="m572 398 2.1 2-2-2z"/><path fill="#0e0e6e" d="m480.7 400 2 2.1-2-2z"/><path fill="#8d8d5b" d="m482.7 400 2 2.1-2-2z"/><path fill="#7fb15c" d="m488.8 400 2 2.1-2-2z"/><path fill="#34be9e" d="m562 400 2 2.1-2-2z"/><path fill="#3a3a7c" d="m570 400 2 2.1-2-2z"/><path fill="#1b1b74" d="m482.7 402.1 2 2z"/><path fill="#a4a43d" d="m484.8 402.1 22.3 22.3z"/><path fill="#74b166" d="m490.9 402.1 2 2z"/><path fill="#27c2aa" d="m559.9 402.1 2 2z"/><path fill="#adb333" d="m562 402.1 2 2z"/><path fill="#667" d="m568 402.1 2 2z"/><path fill="#32327b" d="m484.8 404.1 2 2z"/><path fill="#42bb92" d="m492.9 404.1 2 2z"/><path fill="#0dc9c1" d="m557.9 404.1-8.2 10.2L558 404z"/><path fill="#adb333" d="m559.9 404.1 2 2z"/><path fill="#737370" d="m566 404.1 2 2z"/><path fill="#49497d" d="m486.8 406.2 2 2z"/><path fill="#42bb92" d="m495 406.2 2 2z"/><path fill="#96b247" d="m557.9 406.2 2 2z"/><path fill="#8d8d5b" d="m564 406.2-2 4z"/><path fill="#0e0e6e" d="m566 406.2 2 2z"/><path fill="#53527c" d="m488.8 408.2 2 2z"/><path fill="#42bb92" d="m497 408.2 2 2z"/><path fill="#96b247" d="m555.8 408.2 2 2z"/><path fill="#0e0e6e" d="m564 408.2 2 2z"/><path fill="#6e6c70" d="m490.9 410.2 2 2z"/><path fill="#42bb92" d="m499 410.2 2 2z"/><path fill="#96b247" d="m553.8 410.2 2 2z"/><path fill="#a4a43d" d="m559.9 410.2-4 6.1 4-6z"/><path fill="#262678" d="m562 410.2 2 2z"/><path fill="#6e6c70" d="m492.9 412.3 2 2z"/><path fill="#42bb92" d="m501 412.3 2 2z"/><path fill="#96b247" d="m551.8 412.3 2 2z"/><path fill="#262678" d="m559.9 412.3 2 2z"/><path fill="#6e6c70" d="m495 414.3 2 2z"/><path fill="#68b070" d="m503 414.3 2 2z"/><path fill="#27c2aa" d="m547.7 414.3 2 2z"/><path fill="#adb333" d="m549.7 414.3 2 2z"/><path fill="#262678" d="m557.9 414.3 2 2z"/><path fill="#667" d="m497 416.3 2 2z"/><path fill="#74b166" d="m505 416.3 2.1 2-2-2z"/><path fill="#34be9e" d="m545.7 416.3 2 2z"/><path fill="#adb333" d="m547.7 416.3 2 2z"/><path fill="#8d8d5b" d="m553.8 416.3-2 4z"/><path fill="#262678" d="m555.8 416.3 2 2z"/><path fill="#49497d" d="m499 418.3 2 2z"/><path fill="#96b247" d="m507.1 418.3 2 2z"/><path fill="#0dc9c1" d="m509.1 418.3 2 2z"/><path fill="#42bb92" d="m543.6 418.3 2 2z"/><path fill="#0e0e6e" d="m553.8 418.3 2 2z"/><path fill="#49497d" d="m501 420.4 2 2z"/><path fill="#a2b23d" d="m509.1 420.4 2 2z"/><path fill="#27c2aa" d="m511.2 420.4 2 2z"/><path fill="#74b166" d="m541.6 420.4 2 2z"/><path fill="#a4a43d" d="m547.7 420.4-6 8z"/><path fill="#808067" d="m549.7 420.4 2 2z"/><path fill="#0e0e6e" d="m551.8 420.4 2 2z"/><path fill="#262678" d="m503 422.4 2 2z"/><path fill="#adb333" d="m511.2 422.4 2 2z"/><path fill="#42bb92" d="m513.2 422.4 2 2z"/><path fill="#0dc9c1" d="m537.6 422.4 2 2z"/><path fill="#96b247" d="m539.6 422.4 2 2z"/><path fill="#6e6c70" d="m547.7 422.4 2 2z"/><path fill="#1b1b74" d="m505 424.4 2.1 2-2-2z"/><path fill="#8d8d5b" d="m507.1 424.4 2 2z"/><path fill="#74b166" d="m515.2 424.4 2 2z"/><path fill="#0dc9c1" d="m517.3 424.4 2 2z"/><path fill="#34be9e" d="m535.5 424.4 2 2z"/><path fill="#adb333" d="m537.6 424.4 2 2z"/><path fill="#49497d" d="m545.7 424.4 2 2z"/><path fill="#0e0e6e" d="m507.1 426.5 2 2z"/><path fill="#6e6c70" d="m509.1 426.5 2 2z"/><path fill="#a4a43d" d="m511.2 426.5 4 4z"/><path fill="#96b247" d="m517.3 426.5 2 2z"/><path fill="#27c2aa" d="m519.3 426.5 2 2z"/><path fill="#68b070" d="m533.5 426.5 2 2z"/><path fill="#32327b" d="m543.6 426.5 2 2z"/><path fill="#49497d" d="m511.2 428.5 2 2z"/><path fill="#5bb47c" d="m521.3 428.5 2 2z"/><path fill="#27c2aa" d="m529.4 428.5 2 2z"/><path fill="#96b247" d="m531.5 428.5 2 2z"/><path fill="#a4a43d" d="m537.6 428.5-2 4z"/><path fill="#808067" d="m539.6 428.5 2 2z"/><path fill="#0e0e6e" d="m541.6 428.5 2 2z"/><path fill="#262678" d="m513.2 430.5 2 2z"/><path fill="#8d8d5b" d="m515.2 430.5 2 2z"/><path fill="#8bb252" d="m523.4 430.5 2 2z"/><path fill="#1ac5b5" d="m525.4 430.5 2 2z"/><path fill="#5bb47c" d="m527.4 430.5 2 2z"/><path fill="#58587b" d="m537.6 430.5 2 2z"/><path fill="#0e0e6e" d="m515.2 432.6 2 2z"/><path fill="#667" d="m517.3 432.6 2 2z"/><path fill="#a4a43d" d="m519.3 432.6 2 2z"/><path fill="#99994e" d="m533.5 432.6 2 2z"/><path fill="#32327b" d="m535.5 432.6 2 2zm-16.2 2 2 2z"/><path fill="#99994e" d="m521.3 434.6 2 2z"/><path fill="#a4a43d" d="m529.4 434.6 2 2z"/><path fill="#667" d="m531.5 434.6 2 2z"/><path fill="#0e0e6e" d="m533.5 434.6 2 2zm-12.2 2 2 2z"/><path fill="#667" d="m523.4 436.6 2 2z"/><path fill="#a4a43d" d="m525.4 436.6 2 2z"/><path fill="#99994e" d="m527.4 436.6 2 2z"/><path fill="#32327b" d="m529.4 436.6 2 2z"/><path fill="#262678" d="m525.4 438.6 2 2z"/><path fill="#0e0e6e" d="m527.4 438.6 2 2z"/><path fill="#f90" d="M529.4 302.6c3.2 7.4 13.2 15.5 16 19.5-3.5 4-4.2 3.6-3.8 11 6.1-6.4 6.2-7 10.2-6.1 8.6 8.6 1.5 27-5.6 31-7.1 4.3-5.8-.1-16.5 5.2 4.9 4.2 10.6-.6 15.2.7 2.5 3-1.2 8.4.7 13.6 4.1-.4 3.6-8.7 4.6-11.7 3-11 21-18.6 21.9-28.7 3.8-1.7 7.5-.5 12.1 2-2.3-9.4-9.8-9.3-11.9-12.2-4.8-7.4-9.1-15.8-19.4-18-7.9-1.7-7.3.5-12.3-3-3.2-2.4-12.7-7-11.2-3.3"/><path fill="#fff" fill-rule="evenodd" d="M552 311a1.6 1.6 0 1 1-3.3 0 1.6 1.6 0 0 1 3.3 0"/><path fill="#f90" d="M504.3 333.9c5-6.2 7.6-19 9.8-23.2 5.2 1.2 5.1 2 11.5-1.8-8.5-2.4-9.2-2.2-10.2-6.1 3.6-11.7 23.2-14 30.1-9.6 7.1 4.3 2.6 5.2 12.3 12.1 1.4-6.3-5.5-9-6.5-13.7 1.5-3.7 8-3 11.6-7-2.2-3.5-9.3.8-12.4 1.4-11 2.5-26.3-9.8-35.6-6-3.3-2.5-4-6.4-3.9-11.7-7.2 6.5-3.6 13.1-5.3 16.3-4.2 7.7-9.7 15.5-6.8 25.6 2.2 7.8 3.8 6.2 3.2 12.3-.7 3.9-.4 14.5 2.2 11.4"/><path fill="#fff" fill-rule="evenodd" d="M501.2 310c.8-.4 1.8-.1 2.2.7a1.6 1.6 0 1 1-2.2-.7"/><path fill="#f90" d="M545.4 338.2c-8-1-20.1 3.3-25 3.7-1.5-5.1-.8-5.5-7.4-9 2.3 8.6 2.8 9 0 12-11.8 2.9-24-12.7-23.8-20.8 0-8.3 3.2-5 4-16.9-6 2-4.8 9.4-8.3 12.7-3.9.6-6.6-5.3-12-6.3-1.8 3.7 5.5 7.5 7.6 9.9 7.9 8.2 5.2 27.5 13.3 33.5-.4 4.2-3.4 6.8-8 9.4 9.3 2.9 13.1-3.7 16.7-3.9 8.8-.3 18.3.3 25.5-7.4 5.4-5.9 3.3-6.5 8.8-9 3.7-1.4 12.6-7.2 8.6-7.9"/><path fill="#fff" fill-rule="evenodd" d="M526.6 353.3a1.6 1.6 0 1 1 1.7-2.8 1.6 1.6 0 0 1-1.7 2.8"/></g></svg>