<svg xmlns="http://www.w3.org/2000/svg" xmlns:xlink="http://www.w3.org/1999/xlink" width="640" height="480"><defs><g id="c"><g id="b"><path id="a" fill="#fcd116" d="M0-1v1h.5" transform="rotate(18 0 -1)"/><use xlink:href="#a" transform="scale(-1 1)"/></g><use xlink:href="#b" transform="rotate(72)"/><use xlink:href="#b" transform="rotate(144)"/><use xlink:href="#b" transform="rotate(216)"/><use xlink:href="#b" transform="rotate(288)"/></g></defs><path fill="#ce1126" d="M0 0h640v480H0z"/><path fill="#007a5e" d="M67.2 67.2h505.6v345.6H67.2z"/><path fill="#fcd116" d="M67.2 67.3h505.6L67.2 412.9h505.6z"/><circle cx="319.9" cy="240.1" r="57.6" fill="#ce1126"/><use xlink:href="#c" width="100%" height="100%" transform="translate(320 240)scale(52.8)"/><use xlink:href="#d" width="100%" height="100%" x="-100" transform="translate(-30.3)"/><use xlink:href="#c" id="d" width="100%" height="100%" transform="translate(320 33.6)scale(31.2)"/><use xlink:href="#d" width="100%" height="100%" x="100" transform="translate(30.3)"/><path fill="#ce1126" d="M102.3 240.7c7.2 13.4 21.2 28 33.5 33.2a111 111 0 0 0-11.3-45z"/><path fill="#fcd116" d="M90.1 194.7c10.4 21.7-27.1 73.7 35.5 85.9a63.2 63.2 0 0 1-10.9-41.9c13.2 5 27 19.6 32.5 30.8 16.4-59.5-42-55.8-57.1-74.8"/><use xlink:href="#d" width="100%" height="100%" x="-100" transform="translate(-30.3 414.6)"/><use xlink:href="#c" width="100%" height="100%" transform="translate(320 448.2)scale(31.2)"/><use xlink:href="#d" width="100%" height="100%" x="100" transform="translate(30.3 414.6)"/></svg>