<svg xmlns="http://www.w3.org/2000/svg" width="24" height="24" fill="none"><path fill="#0071DC" d="M2 20.938C2 22.075 2.96 23 4.143 23h15.714C21.04 23 22 22.076 22 20.938V9.25H2zm14.286-8.422c0-.284.24-.516.535-.516h1.786c.295 0 .536.232.536.516v1.718a.53.53 0 0 1-.536.516h-1.786a.527.527 0 0 1-.535-.516zm0 5.5c0-.284.24-.516.535-.516h1.786c.295 0 .536.232.536.516v1.718a.53.53 0 0 1-.536.516h-1.786a.527.527 0 0 1-.535-.516zm-5.715-5.5c0-.284.242-.516.536-.516h1.786c.294 0 .536.232.536.516v1.718a.527.527 0 0 1-.536.516h-1.786a.527.527 0 0 1-.536-.516zm0 5.5c0-.284.242-.516.536-.516h1.786c.294 0 .536.232.536.516v1.718a.527.527 0 0 1-.536.516h-1.786a.527.527 0 0 1-.536-.516zm-5.714-5.5c0-.284.241-.516.536-.516h1.786c.294 0 .535.232.535.516v1.718a.527.527 0 0 1-.535.516H5.393a.527.527 0 0 1-.536-.516zm0 5.5c0-.284.241-.516.536-.516h1.786c.294 0 .535.232.535.516v1.718a.527.527 0 0 1-.535.516H5.393a.527.527 0 0 1-.536-.516zm15-14.266h-2.143V1.688c0-.379-.321-.688-.714-.688h-1.429c-.392 0-.714.31-.714.688V3.75H9.143V1.688c0-.379-.322-.688-.714-.688H7c-.393 0-.714.31-.714.688V3.75H4.143C2.96 3.75 2 4.674 2 5.813v2.062h20V5.813c0-1.14-.96-2.063-2.143-2.063"/></svg>