<svg xmlns="http://www.w3.org/2000/svg" width="20" height="20" fill="none"><path fill="#CACED9" d="m18.65 12.063-2.106-4.007a1.04 1.04 0 0 0-.925-.556H11.25l-.625 5.625 8.125-.625a1 1 0 0 0-.1-.437"/><path fill="#26C9FC" d="M18.557 11.875h-4.12a.685.685 0 0 1-.687-.688V8.818c0-.38.307-.687.688-.687h2.137z"/><path fill="#FF822D" d="M18.75 12.5v3.269c0 .612-.5 1.112-1.113 1.112H2.375a1.13 1.13 0 0 1-1.125-1.125V12.5l4.688-1.875L11.25 12.5z"/><path fill="#321B41" d="M12.5 16.563a2.188 2.188 0 1 0 4.375 0 2.188 2.188 0 0 0-4.375 0m-9.375 0a2.187 2.187 0 1 0 4.375 0 2.187 2.187 0 0 0-4.375 0"/><path fill="#F4F4F4" d="M13.75 16.563a.938.938 0 1 0 1.875 0 .938.938 0 0 0-1.875 0m-9.375 0a.938.938 0 1 0 1.876 0 .938.938 0 0 0-1.876 0"/><path fill="#CA0B4A" d="M1.25 13.75h.312c.532 0 .963.444.938.981-.025.507-.463.894-.969.894H1.25z"/><path fill="#8C62A0" d="M9.375 4.375h-6.25A1.87 1.87 0 0 0 1.25 6.25v6.25h10V6.25a1.87 1.87 0 0 0-1.875-1.875m9.375 11.25h-.569a.683.683 0 0 1-.681-.681v-1.138c0-.375.306-.681.681-.681h.569z"/></svg>