<svg xmlns="http://www.w3.org/2000/svg" width="24" height="24" fill="none"><path fill="#0071DC" fill-rule="evenodd" d="M11.557 1.089a1.15 1.15 0 0 1 .886 0l7.194 3.015c.404.17.75.452.992.811s.371.78.371 1.212v7.545c0 1.357-.367 2.69-1.064 3.864a7.8 7.8 0 0 1-2.904 2.82l-4.474 2.5a1.15 1.15 0 0 1-1.116 0l-4.474-2.5a7.8 7.8 0 0 1-2.905-2.82A7.57 7.57 0 0 1 3 13.67V6.127c0-.43.13-.852.372-1.211s.587-.642.992-.811zm4.613 9.489c.205-.208.319-.485.316-.774a1.09 1.09 0 0 0-.33-.768 1.139 1.139 0 0 0-1.577-.013l-3.704 3.622-1.455-1.423a1.14 1.14 0 0 0-1.577.014c-.208.204-.327.48-.33.768-.002.288.112.566.317.774l2.25 2.2a1.138 1.138 0 0 0 1.59 0z" clip-rule="evenodd"/></svg>