<svg xmlns="http://www.w3.org/2000/svg" width="24" height="24" fill="none"><path fill="#0071DC" d="M18.17 5.9a2.23 2.23 0 0 0-1.802-.9H4.211C2.995 5 2 5.964 2 7.143v10.714c0 .569.233 1.114.647 1.515.415.402.977.628 1.564.628h12.157c.74 0 1.404-.364 1.802-.91L23 12.5zM8.024 8.246c.862 0 1.57.686 1.57 1.522s-.708 1.521-1.57 1.521-1.57-.685-1.57-1.521.708-1.522 1.57-1.522m5.637 8.508c-.863 0-1.57-.686-1.57-1.522s.707-1.521 1.57-1.521c.862 0 1.569.685 1.569 1.521s-.707 1.522-1.57 1.522m-5.914.032L6.421 15.5l7.516-7.286L15.263 9.5z"/></svg>