<svg xmlns="http://www.w3.org/2000/svg" width="24" height="24" fill="none"><g clip-path="url(#a)"><path fill="#0071DC" d="M23.266.486a.726.726 0 0 0-1.37.479c1.115 3.204-1.098 5.597-2.785 6.878l-.681-.977c-.23-.327-.742-.6-1.14-.604l-3.826.016a2.6 2.6 0 0 0-1.316.406L.875 14.588a1.21 1.21 0 0 0-.297 1.685l5.123 7.33c.384.546.997.48 1.545.098l11.272-7.905c.325-.23.699-.724.83-1.102l1.199-3.774c.131-.377.051-.952-.178-1.28l-.415-.594c2.265-1.737 4.617-4.805 3.312-8.56m-5.245 11.23a1.93 1.93 0 0 1-3.009-1.921 1.928 1.928 0 0 1 3.036-1.23 7 7 0 0 1-.593.33.727.727 0 0 0 .311 1.384.7.7 0 0 0 .309-.07q.35-.165.742-.397a1.94 1.94 0 0 1-.797 1.904"/></g><defs><clipPath id="a"><path fill="#fff" d="M0 0h24v24H0z"/></clipPath></defs></svg>