<svg xmlns="http://www.w3.org/2000/svg" width="48" height="32" fill="none"><g clip-path="url(#a)"><path fill="#DA291C" d="M19.783 20.225v-4.13H16.27v4.13h-2.71l3.265 3.266a1.673 1.673 0 0 0 2.402 0l3.265-3.266zm-8.01-1.726V9.562L8.509 12.83a1.675 1.675 0 0 0 0 2.404zm4.498-10.724v4.13h3.512v-4.13h2.71l-3.265-3.267a1.673 1.673 0 0 0-2.402 0L13.56 7.775zm11.274 5.054-3.327-3.267V18.5l3.266-3.266a1.73 1.73 0 0 0 .061-2.404"/></g><path stroke="#575C66" stroke-width="1.5" d="M33 8.5h7.5l6 8v10H44M33.5 15H45"/><circle cx="39" cy="26" r="5.25" stroke="#575C66" stroke-width="1.5"/><circle cx="10" cy="26" r="5.25" stroke="#575C66" stroke-width="1.5"/><path fill="#575C66" d="M8 2.5h24a.5.5 0 0 1 .5.5v22a.5.5 0 0 1-.5.5H14.975A5 5 0 0 1 14.9 27H32a2 2 0 0 0 2-2V3a2 2 0 0 0-2-2H8a8 8 0 0 0-8 8v16a2 2 0 0 0 2 2h3.1a5 5 0 0 1-.075-1.5H2a.5.5 0 0 1-.5-.5V9A6.5 6.5 0 0 1 8 2.5"/><defs><clipPath id="a"><path fill="#fff" d="M8 4h20v20H8z"/></clipPath></defs></svg>